<svg xmlns="http://www.w3.org/2000/svg" viewBox="0 0 144.48 173.26"><defs><style>.cls-1{fill:#cecbe6;}.cls-2{fill:#f69799;}.cls-3{fill:#cb2026;}</style></defs><title>Asset 12mexs</title><g id="Layer_2" data-name="Layer 2"><g id="Layer_1-2" data-name="Layer 1"><rect class="cls-1" x="46.28" y="156.11" width="5.61" height="5.5"/><rect class="cls-1" x="46.17" y="167.65" width="5.76" height="5.62"/><rect class="cls-1" x="92.58" y="156.07" width="5.56" height="5.56"/><rect class="cls-1" x="92.55" y="167.65" width="5.76" height="5.62"/><path class="cls-2" d="M144.48,91.09c0,16.29,0,32.6,0,48.91,0,3.62-.81,4.42-4.51,4.42H98.34V150h-5.8v-5.48h-6c0,3.12.23,6.23,0,9.28-.76,8.72-5.29,15-13,19.1l-.58.32H71.56a24.08,24.08,0,0,1-11.72-11.91c-2.43-5.31-2.09-11-2.08-16.78H52.05v5.49H46.26v-5.63H4.37c-3.46,0-4.34-.86-4.34-4.25,0-16.42,0-32.83,0-49.25a5.84,5.84,0,0,1,1.85-4.49Q22.06,66.3,42.22,46.13a4.32,4.32,0,0,0,1.34-2.91Q46.19,15.05,70.49.53a3.14,3.14,0,0,1,3.5,0c13.83,8.13,22.52,20,26,35.66.55,2.53.64,5.15,1.09,7.69A4.23,4.23,0,0,0,102.18,46q20.13,20.17,40.34,40.32A6.16,6.16,0,0,1,144.48,91.09Z"/><path class="cls-3" d="M142.52,86.31Q122.29,66.21,102.18,46A4.23,4.23,0,0,1,101,43.88c-.45-2.54-.54-5.16-1.09-7.69C96.51,20.53,87.82,8.66,74,.53a3.14,3.14,0,0,0-3.5,0Q46.19,15.05,43.56,43.22a4.32,4.32,0,0,1-1.34,2.91Q22,66.28,1.85,86.43A5.84,5.84,0,0,0,0,90.92c0,16.42,0,32.83,0,49.25,0,3.39.88,4.25,4.34,4.25H46.26v5.63h5.79v-5.49h5.71c0,5.78-.35,11.47,2.08,16.78a24.08,24.08,0,0,0,11.72,11.91h1.36l.58-.32c7.67-4.09,12.2-10.38,13-19.1.27-3.05,0-6.16,0-9.28h6V150h5.8v-5.61h41.6c3.7,0,4.51-.8,4.51-4.42,0-16.31,0-32.62,0-48.91A6.16,6.16,0,0,0,142.52,86.31ZM9.78,138.59c-1.22-.1-2.45,0-3.79,0V107h5.47c0,.56.1,1.06.1,1.55,0,9.41,0,18.82,0,28.23C11.61,138.21,11.17,138.69,9.78,138.59ZM31.7,85.12c.06,8.57,0,17.16,0,25.73s0,17.14,0,25.71c0,1.5-.36,2.07-2,2-4-.1-8.09,0-12.36,0v-2.34q0-15.57,0-31.15c0-3-1-4-4-4H5.91c0-3.49,0-6.79,0-10.09,0-.33.34-.7.6-1L42.69,53.87a4,4,0,0,1,.48-.25,11,11,0,0,1,.16,1.25c0,6.61,0,13.2,0,19.81A2.06,2.06,0,0,1,42,76.84c-2.5,1.16-4.9,2.54-7.43,3.65C32.39,81.41,31.68,82.9,31.7,85.12Zm75.13,51.78c0,1.19-.26,1.73-1.58,1.69-2.24-.09-4.48,0-6.9,0V118.5H92.54c0,.63-.08,1.24-.08,1.84,0,5.53,0,11.06,0,16.59,0,1.25-.37,1.66-1.63,1.66q-18.61-.06-37.23,0c-1.29,0-1.63-.46-1.62-1.68.06-5.42,0-10.84,0-16.25v-2.15h-5.8v20c-2.74,0-5.3,0-7.86,0-.23,0-.52-.48-.66-.77a2.17,2.17,0,0,1,0-.85q0-24.95,0-49.91a2.06,2.06,0,0,1,1.41-2.15c2.59-1.22,5.11-2.62,7.71-3.82a3.9,3.9,0,0,0,2.47-4c0-10.61-.34-21.23.09-31.81C50,28.75,57.57,16,71.29,6.91a2.14,2.14,0,0,1,1.91,0C84.92,14.54,92.12,25.22,94.53,39a56.68,56.68,0,0,1,.7,9.41q.13,14.12,0,28.26A4.33,4.33,0,0,0,98,81.16c2.56,1.15,5,2.53,7.57,3.74a1.82,1.82,0,0,1,1.23,1.91Q106.79,111.85,106.83,136.9Zm20.24-31.46q0,15.41,0,30.8v2.18c-.71.06-1.3.14-1.9.14H115c-2.24,0-2.25,0-2.25-2.19,0-16.75-.06-33.5.06-50.25,0-3.06-.82-5-3.79-6.11a53.85,53.85,0,0,1-6.8-3.39,2.11,2.11,0,0,1-1-1.46c-.06-7,0-14,0-21a2.32,2.32,0,0,1,.22-.62c.48.44.89.79,1.27,1.16q17.48,17.48,34.91,35a3.81,3.81,0,0,1,1,2.31c.11,2.93,0,5.86,0,9h-7.17C127.9,101.06,127.07,101.9,127.07,105.44Zm9.74,33.16c-3.9,0-3.9,0-3.9-3.93V107h5.58c0,.58.11,1.06.11,1.55,0,9.42,0,18.82,0,28.24C138.64,138.23,138.2,138.61,136.81,138.6Z"/><rect class="cls-3" x="46.17" y="167.65" width="5.76" height="5.62"/><rect class="cls-3" x="92.55" y="167.65" width="5.76" height="5.62"/><rect class="cls-3" x="46.28" y="156.11" width="5.61" height="5.5"/><rect class="cls-3" x="92.58" y="156.07" width="5.56" height="5.56"/><path class="cls-3" d="M82.83,62.89a12.62,12.62,0,0,1-10.65,6.46c-4.2-.16-7.31-2.25-9.85-5.44-6.16-7.71-6-22.62.41-30.17,6-7.09,15.28-6.54,20.05,1.47C88.23,44.33,88.15,53.69,82.83,62.89Z"/></g></g></svg>